<?xml version="1.0" encoding="utf-8" ?>
<svg xmlns="http://www.w3.org/2000/svg" xmlns:xlink="http://www.w3.org/1999/xlink" width="1206" height="965">
	<defs>
		<linearGradient id="gradient_0" gradientUnits="userSpaceOnUse" x1="689.4256" y1="639.17432" x2="683.24225" y2="649.13263">
			<stop offset="0" stop-color="white" stop-opacity="0.06666667"/>
			<stop offset="1" stop-color="white" stop-opacity="0.14901961"/>
		</linearGradient>
	</defs>
	<path fill="url(#gradient_0)" transform="scale(0.942841 0.942841)" d="M689.322 638.657C690.466 638.817 690.976 639.274 691.858 639.989C692.343 641.416 692.374 642.042 691.752 643.452C690.093 647.218 686.792 648.765 683.206 650.128L681.331 650.354L680.167 649.132L681.296 650.29L680.4 649.702C680.121 648.952 680.089 648.552 680.244 647.74C680.96 643.982 686.339 640.645 689.322 638.657Z"/>
	<path fill="#45C058" transform="scale(0.942841 0.942841)" d="M387.941 427.26Q389.167 427.16 390.397 427.121Q391.626 427.082 392.856 427.105Q394.086 427.127 395.313 427.21Q396.54 427.293 397.762 427.437Q398.984 427.581 400.197 427.786Q401.41 427.99 402.611 428.255Q403.812 428.519 404.999 428.843Q406.186 429.166 407.355 429.548Q408.524 429.931 409.673 430.37Q410.822 430.81 411.948 431.306Q413.073 431.802 414.173 432.354Q415.272 432.905 416.343 433.511Q417.414 434.116 418.454 434.774Q419.493 435.431 420.499 436.14Q421.505 436.848 422.474 437.606Q423.443 438.363 424.374 439.168C435.019 448.297 441.428 460.636 442.393 474.67C443.411 489.473 438.607 503.388 428.763 514.488C418.962 525.537 407.229 530.755 392.657 531.687Q391.468 531.729 390.278 531.717Q389.088 531.706 387.9 531.641Q386.712 531.576 385.528 531.458Q384.344 531.34 383.166 531.169Q381.988 530.998 380.82 530.775Q379.651 530.551 378.493 530.276Q377.336 530 376.191 529.673Q375.047 529.345 373.919 528.967Q372.791 528.589 371.681 528.161Q370.57 527.733 369.48 527.255Q368.39 526.778 367.323 526.252Q366.255 525.726 365.213 525.153Q364.17 524.579 363.154 523.96Q362.137 523.341 361.15 522.677Q360.162 522.012 359.206 521.305Q358.249 520.597 357.325 519.847Q356.327 519.037 355.371 518.178Q354.415 517.319 353.503 516.414Q352.591 515.508 351.726 514.558Q350.861 513.607 350.044 512.615Q349.228 511.623 348.462 510.59Q347.696 509.558 346.983 508.489Q346.27 507.42 345.611 506.316Q344.953 505.213 344.35 504.077Q343.748 502.942 343.203 501.778Q342.658 500.614 342.172 499.424Q341.686 498.234 341.26 497.021Q340.835 495.808 340.47 494.576Q340.106 493.343 339.804 492.094Q339.502 490.845 339.263 489.582Q339.024 488.319 338.848 487.046Q338.672 485.772 338.561 484.492C337.293 470.154 341.239 456.406 350.669 445.454C360.57 433.955 372.915 428.297 387.941 427.26Z"/>
	<path fill="#26B0D0" transform="scale(0.942841 0.942841)" d="M869.811 317.821C886.334 317.071 900.645 319.292 914.443 329.066C927.556 338.354 937.069 353.478 939.738 369.341C942.597 386.336 939.094 404.586 928.85 418.589C917.508 434.093 900.697 442.686 882.014 445.505C881.683 445.549 881.353 445.601 881.022 445.637C864.758 447.402 847.653 441.858 834.942 431.734C821.426 420.969 813.151 405.618 811.241 388.445Q811.067 386.87 810.97 385.289Q810.874 383.707 810.857 382.123Q810.839 380.538 810.9 378.955Q810.961 377.371 811.101 375.793Q811.241 374.215 811.459 372.645Q811.677 371.076 811.972 369.519Q812.268 367.962 812.64 366.422Q813.013 364.882 813.461 363.363Q813.91 361.843 814.433 360.347Q814.957 358.852 815.554 357.384Q816.151 355.916 816.82 354.48Q817.489 353.044 818.229 351.643Q818.968 350.242 819.776 348.879Q820.585 347.516 821.46 346.195Q822.335 344.874 823.274 343.598Q824.213 342.323 825.215 341.095C836.381 327.404 852.33 319.497 869.811 317.821Z"/>
	<path fill="#9BCF3C" transform="scale(0.942841 0.942841)" d="M741.465 434.519C740.87 435.203 739.667 436.219 739.518 437.114C738.938 440.621 742.697 448.787 743.841 452.282C751.65 476.134 752.382 502.153 747.464 526.698C737.552 576.166 702.923 619.073 665.244 651C659.563 655.814 653.774 661.461 647.603 665.569C647.632 665.265 669.171 639.801 672.493 635.054C686.007 615.737 697.248 595.792 703.391 572.895C709.569 549.867 708.709 527.465 700.153 505.098C685.308 466.285 655.09 440.551 623.967 414.694Q606.176 399.892 588.642 384.786C567.517 366.915 546.219 347.267 532.34 322.984C518.755 299.215 514.597 275.033 521.945 248.465C529.624 220.701 548.339 195.972 568.493 175.959C571.68 172.794 575.558 168.001 579.391 165.815L578.448 166.981L578.487 167.07C570.142 178.078 561.98 188.639 555.334 200.787C544.221 221.099 538.432 245.457 545.247 268.153C557.713 309.671 604.362 332.316 640.794 349.411C651.678 354.518 663.334 359.189 673.669 365.299C680.622 369.409 687.533 373.821 693.747 379C698.939 383.327 704.775 390.71 710.666 393.707C710.798 393.774 710.933 393.834 711.067 393.897C712.658 393.831 714.39 393.502 715.794 394.383C715.575 395.956 715.177 397.317 715.699 398.847C717.038 399.46 718.139 399.063 719.503 398.759C721.513 400.407 721.552 401.607 721.848 404.062L722.588 404.557C724.386 405.772 726.749 407.181 726.837 409.634C726.876 410.705 726.228 411.953 725.806 412.919L726.452 414.139C727.171 413.734 727.703 413.312 728.304 412.746C730.46 413.697 740.041 431.48 741.465 434.519Z"/>
	<path fill="#1D9754" transform="scale(0.942841 0.942841)" d="M277.055 431.144C279.385 433.326 281.793 441.16 283.249 444.308C287.939 454.447 293.205 464.838 299.508 474.074C328.888 517.119 371.434 548.071 413.412 577.697C436.733 541.808 476.421 512.97 514.37 494.414C550.704 476.647 589.076 466.862 629.29 463.526C634.066 463.13 643.42 461.352 647.941 462.915Q642.865 463.885 637.821 465.01C583.228 477.403 529.223 506.87 498.827 555.234C487.702 573.42 482.124 592.962 485.392 614.333C492.38 660.039 534.254 692.651 569.185 718.189C558.813 724.151 546.741 732.173 535.115 735.16C456.896 700.127 372.371 657.124 319.933 586.924C287.416 543.392 269.243 485.585 277.055 431.144Z"/>
	<defs>
		<linearGradient id="gradient_1" gradientUnits="userSpaceOnUse" x1="1013.6803" y1="393.45679" x2="233.05159" y2="637.01697">
			<stop offset="0" stop-color="#2161B3"/>
			<stop offset="1" stop-color="#16A3CC"/>
		</linearGradient>
	</defs>
	<path fill="url(#gradient_1)" transform="scale(0.942841 0.942841)" d="M573.413 267.693Q581.606 271.196 589.703 274.915Q597.8 278.634 605.796 282.567Q613.791 286.5 621.68 290.643Q629.568 294.787 637.344 299.138Q645.12 303.49 652.777 308.046Q660.435 312.602 667.969 317.36Q675.503 322.118 682.908 327.074Q690.313 332.03 697.585 337.181Q704.856 342.332 711.988 347.674Q719.12 353.016 726.107 358.546Q733.095 364.075 739.934 369.788Q746.772 375.501 753.457 381.394Q760.142 387.286 766.668 393.354Q773.194 399.422 779.556 405.661Q785.919 411.899 792.114 418.305Q798.309 424.71 804.332 431.278C819.714 448.379 838.555 471.009 847.111 492.422C848.574 496.084 850.014 499.839 851.205 503.598C861.351 497.337 870.797 489.984 880.218 482.699C924.412 448.523 981.496 393.235 1000.66 339.843C1001.05 357.912 1001.66 375.877 999.906 393.915C993.232 462.606 959.152 521.94 912.152 571.127C814.713 673.101 645.544 763.095 509.325 797.782Q492.958 801.869 476.397 805.077Q459.836 808.286 443.128 810.607Q426.419 812.929 409.611 814.357Q392.802 815.785 375.942 816.315C351.848 816.845 304.846 817.416 285.991 799.477C281.706 795.4 279.108 790.108 279.077 784.128C279.016 772.062 287.716 761.069 295.885 753.07C305.177 743.97 317.818 734.367 329.572 728.717L329.941 729.199L330.531 728.598L330.501 728.384C330.354 728.523 330.21 728.666 330.06 728.802C318.443 739.304 298.304 751.664 297.262 769.127C296.948 774.389 299.01 779.176 302.614 782.948C314.06 794.924 336.143 796.665 351.83 796.815C372.131 797.009 392.899 793.786 412.736 789.764C510.187 770.004 630.18 710.75 701.101 640.568C734.614 607.404 763.484 562.346 763.73 513.8C763.857 488.69 755.635 455.454 741.465 434.519C740.041 431.48 730.46 413.697 728.304 412.746C727.703 413.312 727.171 413.734 726.452 414.139L725.806 412.919C726.228 411.953 726.876 410.705 726.837 409.634C726.749 407.181 724.386 405.772 722.588 404.557L721.848 404.062C721.552 401.607 721.513 400.407 719.503 398.759C718.139 399.063 717.038 399.46 715.699 398.847C715.177 397.317 715.575 395.956 715.794 394.383C714.39 393.502 712.658 393.831 711.067 393.897L713.914 393.169C714.302 392.184 714.452 391.941 713.981 390.898C711.968 386.444 701.722 375.195 698.238 371.082C671.361 339.349 640.559 313.41 606.527 289.757C595.635 282.187 584.306 275.25 573.413 267.693Z"/>
</svg>
