<?xml version="1.0" encoding="UTF-8" standalone="no"?>
<svg
   width="559"
   height="1245"
   version="1.1"
   id="svg5"
   sodipodi:docname="fundartox-logo.svg"
   inkscape:version="1.3.2 (091e20e, 2023-11-25, custom)"
   xmlns:inkscape="http://www.inkscape.org/namespaces/inkscape"
   xmlns:sodipodi="http://sodipodi.sourceforge.net/DTD/sodipodi-0.dtd"
   xmlns="http://www.w3.org/2000/svg"
   xmlns:svg="http://www.w3.org/2000/svg">
  <defs
     id="defs5" />
  <sodipodi:namedview
     id="namedview5"
     pagecolor="#ffffff"
     bordercolor="#000000"
     borderopacity="0.25"
     inkscape:showpageshadow="2"
     inkscape:pageopacity="0.0"
     inkscape:pagecheckerboard="0"
     inkscape:deskcolor="#d1d1d1"
     inkscape:zoom="0.63212851"
     inkscape:cx="280.00635"
     inkscape:cy="622.5"
     inkscape:window-width="1920"
     inkscape:window-height="1001"
     inkscape:window-x="-9"
     inkscape:window-y="-9"
     inkscape:window-maximized="1"
     inkscape:current-layer="svg5" />
  <path
     fill="#3A32B2"
     transform="scale(0.545968 0.545947)"
     d="M552.554 539.585C579.222 537.474 613.076 551.95 633.825 590.35C640.163 602.079 646.092 617.398 646.735 636.529C647.278 652.646 643.932 667.801 639.286 679.68C620.456 727.824 585.375 737.266 558.372 741.214C530.922 742.366 498.723 730.295 477.06 690.66C470.566 678.779 465.547 662.968 464.904 643.772C464.36 627.545 467.208 612.202 471.913 600.054C489.993 553.372 526.353 543.685 552.554 539.585Z"
     id="path1"
     style="fill:#2161b3;fill-opacity:1" />
  <path
     fill="#00E680"
     transform="scale(0.545968 0.545947)"
     d="M262.487 1018.53C286.607 1015.55 313.612 1020 335.788 1042.23C348.317 1054.79 362.596 1075.88 367.455 1106.12C368.755 1114.21 368.228 1127.9 366.558 1135.66C364.924 1143.25 363.599 1150.94 361.045 1157.3C343.661 1200.57 313.461 1215.79 288.376 1218.74C259.858 1223.15 221.583 1212.54 198.461 1172.63C191.527 1160.66 185.093 1143.68 184.139 1123.53C183.357 1107.02 186.486 1091.24 191.192 1078.84C207.658 1035.45 238.32 1023.33 262.487 1018.53Z"
     id="path2"
     style="fill:#45c058;fill-opacity:1" />
  <path
     fill="#00E680"
     transform="scale(0.545968 0.545947)"
     d="M534.65 1109.83C529.483 1101.81 520.434 1095.9 514.514 1089.79L451.848 1023.79Q381.732 946.448 312.693 864.433C310.87 862.306 309.287 859.457 307.478 857.289C282.94 827.893 259.25 796.667 235.552 764.066C227.762 753.35 219.807 743.214 212.072 732.304C172.921 677.087 134.34 616.293 99.7704 547.448C98.2473 544.415 97.0456 540.751 95.5291 537.666C62.9325 471.348 30.5612 395.758 17.2253 299.636C10.4099 250.512 9.59204 203.675 16.5902 154.572C17.8383 145.815 18.9464 136.246 20.9222 128.16C23.5533 117.391 27.4485 92.8921 30.9497 85.1342C33.1827 80.1863 34.8423 72.4805 36.7072 66.7057C40.2352 55.7811 50.2512 26.6495 54.8827 18.5973C55.6243 17.3078 56.1076 16.1495 56.7202 14.5628C57.4351 12.7112 57.5804 12.1352 58.6076 11.1353L58.8615 12.5712C58.1799 14.1834 58.365 13.606 57.866 15.2527C54.2005 27.3487 49.9489 40.1737 46.9744 53.1409C45.7901 58.3039 45.961 64.4534 44.6204 69.6018C44.3943 70.47 44.1443 71.3088 43.9397 72.2031C42.4086 78.8981 41.8137 87.7413 41.2597 95.1178Q40.7385 102.239 40.4256 109.42Q40.1128 116.602 40.0096 123.813Q39.9064 131.025 40.0133 138.236Q40.1202 145.447 40.4368 152.628Q40.7534 159.809 41.2783 166.929Q41.8032 174.048 42.5342 181.077Q43.2653 188.106 44.1993 195.015Q45.1334 201.924 46.2666 208.683C56.354 269.332 77.9921 323.344 99.2221 366.355C126.935 422.498 158.547 468.412 189.96 513.421C205.382 535.517 220.943 557.673 236.764 578.272C258.627 606.738 281.092 633.305 303.403 659.987Q358.635 726.211 414.948 787.746Q468.553 844.594 522.851 898.077L611.623 988.66C603.85 1004.15 539.76 1110.12 534.65 1109.83Z"
     id="path3"
     style="fill:#45c058;fill-opacity:1" />
  <path
     fill="#00E680"
     transform="scale(0.545968 0.545947)"
     d="M660.345 1049.66L660.843 1050.22C671.848 1062.43 683.734 1071.18 694.938 1082.59Q734.983 1122.96 774.493 1165.87C846.163 1242.25 981.093 1389.53 1008.14 1566.48C1015.25 1612.97 1012.55 1660.84 1002.76 1704.36C971.837 1841.88 875.113 1934.78 814.179 1989.84C807.752 1995.65 800.967 2000.23 794.404 2005.28C783.966 2013.33 773.548 2021.63 763.064 2029.36C746.329 2041.7 729.189 2053.51 712.261 2064.46C707.699 2067.41 670.307 2089.23 668.256 2088.28C671.346 2083.49 675.498 2081.08 678.964 2077.68Q691.028 2065.89 702.936 2053.35C734.536 2019.71 761.378 1983.25 786.272 1927.75C789.689 1920.13 794.98 1910.54 797.064 1900.85L797.621 1900.62C817.807 1845.66 827.933 1788.85 824.744 1717.04C822.646 1669.81 813.133 1624.57 801.942 1584.78C801.899 1584.63 801.55 1582.61 801.542 1582.56C800.363 1576.33 797.92 1571.06 796.148 1565.59C795.283 1562.92 794.795 1559.92 793.973 1557.23C791.852 1550.28 789.381 1543.69 787.043 1537.1C748.31 1427.92 695.376 1344.6 642.694 1272.06Q625.062 1248.13 607.012 1225.81C602.07 1219.57 596.119 1213.8 591.628 1206.4C596.24 1190.71 604.349 1177.9 610.454 1165.05Q623.047 1138.47 635.163 1110.81C643.831 1090.99 651.222 1068.51 660.345 1049.66Z"
     id="path4"
     style="fill:#45c058;fill-opacity:1" />
  <path
     fill="#3A32B2"
     transform="scale(0.545968 0.545947)"
     d="M611.623 988.66C611.765 988.63 611.91 988.644 612.048 988.569C614.69 987.147 623.302 967.418 625.803 962.503C633.161 948.048 640.815 934.355 648.114 919.744Q654.397 907.364 660.43 894.382Q666.463 881.399 672.235 867.84Q678.006 854.281 683.505 840.17Q689.004 826.059 694.22 811.425C697.733 801.543 702.179 791.264 704.878 780.238C706.719 772.715 709.66 767.585 711.384 759.684L712.113 760.11C715.519 774.393 710.235 847.163 707.836 864.68C706.18 876.775 704.898 889.649 702.823 901.361C695.015 945.439 682.786 987.371 669.762 1024.59C667.159 1032.02 663.76 1044.37 660.345 1049.66C651.222 1068.51 643.831 1090.99 635.163 1110.81Q623.047 1138.47 610.454 1165.05C604.349 1177.9 596.24 1190.71 591.628 1206.4C588.779 1213.83 579.679 1229.8 575.89 1237.33Q557.309 1274.92 538.42 1311.74C525.416 1336.88 512.564 1362.46 499.478 1387.36C460.37 1461.77 420.289 1537.06 386.773 1624.3C353.43 1711.1 318.408 1830.01 322.669 1949.39C323.892 1983.66 327.767 2015.22 335.445 2045.24C359.465 2139.17 417.278 2204.8 461.229 2241C466.088 2245 495.413 2263.85 496.952 2266.77C491.98 2270.6 381.02 2218.15 367.661 2211.21C292.989 2172.42 125.098 2067.54 84.4096 1919.84C77.2457 1893.84 73.7621 1864.55 73.8871 1834.22C73.9087 1829 73.7944 1822.95 74.3929 1817.88C75.3679 1809.62 75.4859 1800.73 76.6261 1792.6C81.1564 1760.31 90.1659 1728.46 99.6061 1702.19C151.091 1558.89 254.735 1446.78 327.994 1362.61C380.999 1301.71 434.55 1242.66 486.156 1176.01Q502.148 1155.38 517.848 1133.66C523.27 1126.27 529.189 1119.25 534.213 1110.6C534.36 1110.34 534.505 1110.08 534.65 1109.83C539.76 1110.12 603.85 1004.15 611.623 988.66Z"
     id="path5"
     style="fill:#2161b3;fill-opacity:1" />
</svg>
