<?xml version="1.0" encoding="utf-8" ?>
<svg xmlns="http://www.w3.org/2000/svg" xmlns:xlink="http://www.w3.org/1999/xlink" width="1203" height="802">
	<path fill="#14C73F" transform="scale(0.783454 0.783454)" d="M337.247 930.814C349.1 926.754 385.526 905.024 393.834 906.036C371.076 918.007 347.112 929.25 323.653 939.854C333.995 929.744 345.605 920.649 356.854 911.566L357.207 912.611C356.409 916.053 340.635 926.688 337.247 930.814Z"/>
	<path fill="#F27828" transform="scale(0.783454 0.783454)" d="M1028.92 722.943L1030.82 721.389C1031.44 722.989 1032.89 740.535 1034.01 745.362Q1034.55 747.744 1035.18 750.103Q1035.8 752.462 1036.52 754.795Q1037.24 757.127 1038.05 759.431Q1038.86 761.734 1039.76 764.004Q1040.66 766.273 1041.65 768.507Q1042.63 770.74 1043.7 772.933Q1044.78 775.126 1045.93 777.276Q1047.09 779.426 1048.33 781.53Q1049.57 783.633 1050.89 785.687Q1052.21 787.741 1053.61 789.741Q1055 791.742 1056.48 793.687Q1057.95 795.632 1059.5 797.519Q1061.05 799.405 1062.68 801.229Q1064.3 803.054 1065.99 804.814Q1067.68 806.574 1069.44 808.267Q1071.2 809.96 1073.02 811.584C1076.29 814.527 1080.86 818.992 1084.79 820.877C1087.83 822.335 1091.19 822.863 1094.25 824.418C1096.97 825.803 1100.51 826.388 1103.46 825.33C1105.13 824.731 1106.05 823.608 1106.62 821.959C1107.06 820.672 1107.19 819.086 1107.4 817.738C1108.44 817.236 1109.1 817.156 1110.25 817.155C1107.65 810.921 1102.74 805.638 1099.53 799.639C1090.07 781.932 1086.8 759.797 1088.1 739.891C1090.02 743.679 1089.64 758.704 1090.28 763.99C1091.88 777.033 1095.52 789.618 1101.76 801.217C1107.41 811.702 1115.79 822.421 1124.7 830.317C1128.51 833.694 1135.75 838.031 1138.4 842.084C1138.57 842.347 1138.73 842.618 1138.89 842.886C1134.18 841.647 1128.59 841.571 1123.7 840.585C1114.07 838.642 1103.99 833.882 1095.39 829.169Q1093.98 828.395 1092.59 827.586Q1091.2 826.777 1089.84 825.932Q1088.47 825.088 1087.12 824.21Q1085.78 823.331 1084.45 822.419Q1083.13 821.506 1081.83 820.56Q1080.53 819.615 1079.25 818.637Q1077.98 817.658 1076.73 816.648Q1075.48 815.638 1074.25 814.596Q1073.03 813.554 1071.83 812.482Q1070.63 811.409 1069.46 810.307Q1068.29 809.204 1067.15 808.073Q1066.01 806.941 1064.9 805.781Q1063.79 804.62 1062.7 803.432Q1061.62 802.244 1060.57 801.029Q1059.52 799.814 1058.5 798.573Q1057.47 797.331 1056.48 796.064Q1055.5 794.797 1054.54 793.506Q1053.58 792.214 1052.66 790.898Q1051.73 789.583 1050.84 788.245Q1049.95 786.906 1049.1 785.546Q1048.24 784.185 1047.42 782.803Q1046.6 781.421 1045.81 780.019Q1045.02 778.617 1044.27 777.195Q1043.52 775.773 1042.81 774.333Q1042.1 772.893 1041.42 771.435Q1040.74 769.977 1040.1 768.502Q1039.46 767.028 1038.86 765.537Q1038.26 764.047 1037.69 762.542Q1037.13 761.037 1036.6 759.518Q1036.07 757.999 1035.58 756.467Q1035.1 754.935 1034.65 753.391Q1034.2 751.848 1033.79 750.293C1031.43 741.566 1031.69 732.132 1029.11 723.528C1029.05 723.332 1028.98 723.138 1028.92 722.943Z"/>
	<path fill="#7BC430" transform="scale(0.783454 0.783454)" d="M572.054 486.059C572.057 486.448 572.084 487.016 572.018 487.424C571.106 493.013 565.872 500.291 562.621 505.065C536.42 543.55 497.92 573.658 460.837 601.117C455.039 595.883 448.731 591.118 442.639 586.226C437.368 582.052 432.313 577.668 427.265 573.229C475.145 564.071 541.305 524.222 572.054 486.059Z"/>
	<path fill="#F27828" transform="scale(0.783454 0.783454)" d="M968.992 486.633C973.077 490.347 976.478 496.256 980.304 500.474C990.294 511.49 1003.12 521.585 1015.61 529.622Q1033.36 540.957 1052.02 550.739Q1070.67 560.52 1090.09 568.676C1094.21 570.412 1101.04 572.273 1104.24 575.298C1104.19 575.486 1104.17 575.681 1104.09 575.861C1102.75 579.156 1094.77 584.676 1091.57 586.237C1089.55 590.153 1079.26 597.948 1075.15 599.79C1073.4 597.101 1062.73 591.547 1059.51 589.483C1028.3 569.495 977.159 523.863 968.992 486.633Z"/>
	<path fill="#09B839" transform="scale(0.783454 0.783454)" d="M920.244 755.297L921.102 755.826C922.021 755.561 922.96 755.311 923.906 755.161C927.979 754.513 937.936 759.735 942.022 761.319C992.598 780.932 1037.98 808.471 1081.62 840.504C1091.06 847.43 1145.61 887.3 1147.14 897.243C1145.22 893.954 1140.86 891.817 1137.55 890.125C1137.43 889.941 1137.31 889.753 1137.19 889.572C1134.31 885.393 1110.79 871.506 1105.16 868.08C1097.22 863.243 1088.98 858.671 1081.21 853.571C1075.48 849.804 1070.18 845.549 1064.14 842.221C1054.14 836.709 1043.35 832.286 1032.98 827.468C1006.4 815.11 978.661 802.708 950.762 793.72C936.793 789.22 921.427 785.724 907.046 782.668Q912.923 768.634 920.244 755.297Z"/>
	<path fill="#7BC430" transform="scale(0.783454 0.783454)" d="M429.538 481.141C438.092 480.186 448.197 483.73 454.863 489.029Q455.608 489.63 456.323 490.268Q457.038 490.905 457.721 491.576Q458.403 492.248 459.052 492.953Q459.701 493.657 460.314 494.392Q460.927 495.128 461.504 495.893Q462.08 496.658 462.618 497.45Q463.156 498.242 463.655 499.06Q464.153 499.878 464.61 500.719Q465.068 501.561 465.484 502.423Q465.899 503.286 466.272 504.169Q466.645 505.051 466.973 505.95Q467.302 506.85 467.586 507.764Q467.87 508.679 468.109 509.607Q468.348 510.534 468.541 511.472Q468.733 512.41 468.88 513.357Q469.026 514.303 469.126 515.256Q469.216 516.205 469.259 517.157Q469.303 518.108 469.3 519.061Q469.297 520.014 469.248 520.966Q469.198 521.918 469.103 522.866Q469.007 523.814 468.865 524.756Q468.724 525.698 468.537 526.633Q468.349 527.567 468.117 528.491Q467.884 529.415 467.607 530.327Q467.33 531.239 467.008 532.136Q466.687 533.033 466.322 533.913Q465.958 534.793 465.551 535.655Q465.144 536.517 464.695 537.357Q464.247 538.198 463.758 539.016Q463.269 539.834 462.741 540.627Q462.213 541.42 461.647 542.187Q461.081 542.953 460.478 543.691C453.357 552.38 444.491 556.588 433.474 557.762C424.314 558.005 415.84 555.964 408.433 550.406Q407.651 549.828 406.899 549.212Q406.147 548.596 405.427 547.943Q404.706 547.29 404.019 546.603Q403.331 545.915 402.679 545.195Q402.026 544.474 401.41 543.722Q400.794 542.969 400.216 542.188Q399.638 541.406 399.1 540.596Q398.561 539.787 398.063 538.952Q397.566 538.117 397.11 537.258Q396.654 536.399 396.241 535.519Q395.828 534.638 395.46 533.739Q395.091 532.839 394.767 531.922Q394.444 531.005 394.166 530.074Q393.888 529.142 393.657 528.197Q393.425 527.253 393.241 526.298Q393.057 525.344 392.92 524.381C391.538 514.37 393.939 504.394 400.189 496.4C407.701 486.791 417.695 482.551 429.538 481.141Z"/>
	<path fill="#EFDC21" transform="scale(0.783454 0.783454)" d="M1096.75 479.739C1108.57 478.861 1118.36 479.98 1128.06 487.501C1136.1 493.736 1141.43 502.476 1142.58 512.637Q1142.7 513.611 1142.77 514.591Q1142.84 515.57 1142.86 516.551Q1142.88 517.533 1142.86 518.514Q1142.83 519.495 1142.76 520.474Q1142.68 521.453 1142.56 522.427Q1142.43 523.401 1142.26 524.367Q1142.09 525.334 1141.87 526.29Q1141.65 527.247 1141.38 528.192Q1141.11 529.136 1140.8 530.067Q1140.49 530.997 1140.13 531.91Q1139.77 532.824 1139.36 533.718Q1138.96 534.613 1138.51 535.486Q1138.06 536.36 1137.57 537.21Q1137.08 538.06 1136.55 538.884Q1136.02 539.709 1135.44 540.506Q1134.87 541.303 1134.26 542.071C1128.02 549.798 1118.57 555.113 1108.67 556.094C1102.28 558.203 1092.34 555.578 1086.53 552.595Q1085.66 552.146 1084.82 551.655Q1083.97 551.164 1083.15 550.632Q1082.33 550.1 1081.54 549.529Q1080.74 548.958 1079.98 548.349Q1079.22 547.74 1078.48 547.094Q1077.75 546.448 1077.05 545.768Q1076.34 545.087 1075.68 544.373Q1075.01 543.659 1074.38 542.913Q1073.75 542.167 1073.15 541.391Q1072.56 540.616 1072 539.812Q1071.44 539.008 1070.93 538.178Q1070.41 537.348 1069.93 536.494Q1069.46 535.64 1069.03 534.763Q1068.59 533.887 1068.2 532.99Q1067.81 532.094 1067.47 531.18Q1067.12 530.265 1066.82 529.335Q1066.54 528.463 1066.31 527.578Q1066.08 526.693 1065.89 525.797Q1065.71 524.902 1065.56 523.998Q1065.42 523.095 1065.32 522.185Q1065.22 521.276 1065.17 520.363Q1065.12 519.449 1065.11 518.535Q1065.1 517.62 1065.14 516.706Q1065.17 515.792 1065.25 514.881Q1065.34 513.97 1065.46 513.064Q1065.59 512.158 1065.76 511.259Q1065.93 510.36 1066.15 509.471Q1066.36 508.582 1066.62 507.705Q1066.88 506.828 1067.18 505.964Q1067.48 505.101 1067.83 504.253Q1068.17 503.406 1068.56 502.576Q1068.94 501.746 1069.37 500.937C1075.38 489.653 1084.77 483.306 1096.75 479.739Z"/>
	<path fill="#32C0E6" transform="scale(0.783454 0.783454)" d="M911.795 243.09L912.059 243.256C912.051 243.461 912.062 243.668 912.033 243.872C911.267 249.202 904.552 259.898 901.525 264.911C870.306 316.635 804.207 379.647 754.418 414.806C743.467 409.64 733.155 400.816 723.369 393.685C715.245 387.723 706.689 382.379 698.691 376.239C780.723 349.468 853.687 307.872 911.795 243.09Z"/>
	<path fill="#32C0E6" transform="scale(0.783454 0.783454)" d="M693.841 230.549C707.021 228.347 722.147 232.55 733.157 239.731C746.005 248.111 755.781 261.82 758.803 276.934Q759.076 278.337 759.279 279.752Q759.483 281.167 759.617 282.591Q759.752 284.014 759.817 285.442Q759.881 286.87 759.876 288.3Q759.871 289.729 759.796 291.157Q759.721 292.584 759.577 294.007Q759.433 295.429 759.219 296.842Q759.005 298.256 758.723 299.657Q758.44 301.059 758.09 302.445Q757.739 303.831 757.322 305.198Q756.904 306.565 756.42 307.91Q755.936 309.255 755.387 310.575Q754.838 311.895 754.225 313.186Q753.612 314.478 752.937 315.738Q752.262 316.998 751.526 318.223Q750.79 319.449 749.995 320.637C739.516 335.971 723.61 344.325 705.75 347.744C691.917 349.321 676.417 345.189 665.016 337.27Q663.833 336.452 662.693 335.576Q661.552 334.699 660.457 333.767Q659.362 332.834 658.315 331.848Q657.268 330.861 656.272 329.824Q655.276 328.786 654.333 327.7Q653.391 326.614 652.504 325.481Q651.617 324.349 650.787 323.174Q649.958 321.998 649.189 320.783Q648.42 319.568 647.712 318.315Q647.005 317.062 646.362 315.776Q645.718 314.49 645.14 313.172Q644.562 311.855 644.05 310.511Q643.539 309.166 643.096 307.798Q642.652 306.43 642.278 305.04Q641.904 303.652 641.6 302.246Q641.296 300.84 641.063 299.42C638.414 283.622 641.775 268.436 651.207 255.471C661.658 241.104 676.497 233.307 693.841 230.549Z"/>
	<path fill="#09B839" transform="scale(0.783454 0.783454)" d="M356.854 911.566C394.638 881.665 433.503 853.649 475.146 829.306C563.817 777.472 707.684 720.232 811.23 726.757C810.522 740.671 808.936 755.865 805.154 769.31C784.559 771.132 764.037 772.953 743.672 776.66C652.741 793.214 553.409 833.099 469.014 870.815C443.758 882.102 419.252 895.152 393.834 906.036C385.526 905.024 349.1 926.754 337.247 930.814C340.635 926.688 356.409 916.053 357.207 912.611L356.854 911.566Z"/>
	<path fill="#F39C1D" transform="scale(0.783454 0.783454)" d="M1164.37 379.729C1180.91 389.499 1203.18 435.8 1208.02 454.792C1220.32 503.046 1210.79 553.423 1185.45 595.797C1176.78 610.287 1166.77 624.71 1155.55 637.333C1140.14 654.649 1122.58 670.724 1109.37 689.835C1103.07 698.937 1096.21 709.272 1092.58 719.812C1090.72 725.199 1091.42 735.799 1088.1 739.891C1086.8 759.797 1090.07 781.932 1099.53 799.639C1102.74 805.638 1107.65 810.921 1110.25 817.155C1109.1 817.156 1108.44 817.236 1107.4 817.738C1107.19 819.086 1107.06 820.672 1106.62 821.959C1106.05 823.608 1105.13 824.731 1103.46 825.33C1100.51 826.388 1096.97 825.803 1094.25 824.418C1091.19 822.863 1087.83 822.335 1084.79 820.877C1080.86 818.992 1076.29 814.527 1073.02 811.584Q1071.2 809.96 1069.44 808.267Q1067.68 806.574 1065.99 804.814Q1064.3 803.054 1062.68 801.229Q1061.05 799.405 1059.5 797.519Q1057.95 795.632 1056.48 793.687Q1055 791.742 1053.61 789.741Q1052.21 787.741 1050.89 785.687Q1049.57 783.633 1048.33 781.53Q1047.09 779.426 1045.93 777.276Q1044.78 775.126 1043.7 772.933Q1042.63 770.74 1041.65 768.507Q1040.66 766.273 1039.76 764.004Q1038.86 761.734 1038.05 759.431Q1037.24 757.127 1036.52 754.795Q1035.8 752.462 1035.18 750.103Q1034.55 747.744 1034.01 745.362C1032.89 740.535 1031.44 722.989 1030.82 721.389L1028.92 722.943C1028.97 722.79 1029.03 722.638 1029.08 722.484C1030.86 716.726 1030.01 709.559 1030.8 703.507Q1031.29 699.962 1031.96 696.445Q1032.63 692.929 1033.48 689.451Q1034.32 685.973 1035.34 682.541Q1036.36 679.109 1037.55 675.733Q1038.73 672.357 1040.09 669.045Q1041.45 665.732 1042.97 662.492Q1044.49 659.252 1046.17 656.092Q1047.85 652.933 1049.69 649.861C1092.19 580.094 1189.67 553.868 1188.79 458.823C1188.55 432.984 1181.71 408.571 1169.26 385.978C1167.88 383.472 1166.57 381.576 1164.37 379.729Z"/>
	<path fill="#7BC430" transform="scale(0.783454 0.783454)" d="M393.763 651.366C387.017 645.68 380.84 636.189 375.481 629.16C348.587 593.89 326.855 555.847 322.84 510.816C318.368 460.662 337.381 421.892 368.688 384.336C361.528 399.945 354.862 414.476 352.079 431.611C349.71 446.199 349.52 461.842 351.221 476.514C358.401 538.455 403.875 566.289 446.356 603.765C461.173 616.837 474.529 630.894 486.065 646.96C503.974 674.948 513.574 705.934 506.195 739.218C498.887 772.183 478.292 806.728 449.393 825.072C433.258 835.314 413.091 841.149 394.094 842.463C420.565 822.075 442.034 797.176 446.529 762.908C450.398 733.41 438.771 706.948 421.034 684.037C412.356 672.828 402.319 662.661 393.763 651.366Z"/>
	<path fill="#0462AD" transform="scale(0.783454 0.783454)" d="M818.546 757.854C823.859 719.953 816.511 688.87 796.156 656.377C774.914 622.468 742.68 594.288 713.36 567.484C634.052 494.982 551.133 416.147 534.407 304.352C520.794 213.368 550.493 150.455 603.214 78.9345C601.136 84.2485 598.874 89.4615 596.679 94.7259C578.321 138.762 569.853 188.277 580.112 235.298C603.501 342.492 704.325 397.435 785.208 458.296C817.189 482.361 849.003 509.609 874.018 540.984C887.609 558.031 900.143 577.022 908.468 597.226C930.189 642.612 928.366 701.481 911.88 748.093C893.848 799.076 854.016 846.035 804.93 869.378C782.984 879.815 761.702 883.269 737.607 881.102C780.425 849.653 807.966 810.296 818.546 757.854Z"/>
	<path fill="#024C9D" transform="scale(0.783454 0.783454)" d="M637.083 489.598C648.023 496.057 658.122 505.23 668.64 512.501C695.676 531.19 729.43 546.653 761.944 552.124C798.554 558.285 831.56 551.834 861.764 530.35C872.744 540.46 887.057 561.498 894.579 574.851C897.972 580.874 900.781 587.479 904.528 593.263C905.631 594.965 906.635 596.258 908.468 597.226C930.189 642.612 928.366 701.481 911.88 748.093C893.848 799.076 854.016 846.035 804.93 869.378C782.984 879.815 761.702 883.269 737.607 881.102C780.425 849.653 807.966 810.296 818.546 757.854L819.676 758.459C821.166 757.208 821.164 754.634 821.339 752.722C822.897 735.681 822.903 717.939 818.723 701.273C814.007 682.466 804.696 663.606 793.668 647.723C788.124 639.737 781.609 632.63 775.291 625.272C746.086 591.257 708.476 559.806 675.573 528.67C662.264 516.077 648.902 503.636 637.083 489.598Z"/>
</svg>
