<?xml version="1.0" encoding="utf-8" ?>
<svg xmlns="http://www.w3.org/2000/svg" xmlns:xlink="http://www.w3.org/1999/xlink" width="1987" height="638">
	<path fill="#FEFEFE" transform="scale(6.38924 6.38924)" d="M0 0L310.562 0C311.452 1.36319 311.007 25.7366 311.008 28.8959L311.005 80.7664L311.002 93.6804C311.001 95.3664 311.273 97.5946 310.914 99.2067C310.851 99.4887 310.72 99.7588 310.562 100L0 100L0 0Z"/>
	<path fill="#9EA09F" transform="scale(6.38924 6.38924)" d="M168.391 82.117L169.225 82.1588C169.386 82.4181 169.468 82.6412 169.501 82.9438C169.645 84.2658 169.847 92.4069 169.456 93.2222C169.357 93.4298 169.083 93.6884 168.934 93.8757L168.748 93.7788C167.94 92.5095 168.846 84.4407 168.391 82.117Z"/>
	<path fill="#9EA09F" transform="scale(6.38924 6.38924)" d="M66.2559 81.9074C67.6663 83.2692 66.096 89.6098 67.4826 92.0015Q67.6211 92.2398 67.8033 92.4467Q67.9855 92.6536 68.2045 92.8211Q68.4234 92.9886 68.6707 93.1105Q68.918 93.2323 69.1842 93.3037C70.0622 93.5314 71.0152 93.3072 71.7842 92.8551C74.9834 90.9743 72.8055 85.374 73.6399 82.2492L73.993 82.0661L74.4244 82.327C74.1725 85.2823 74.7947 88.5279 73.9317 91.3918C73.6453 92.3421 73.0986 93.1722 72.2008 93.6431C71.3233 94.1034 70.2099 94.1059 69.2778 93.817C68.1105 93.4553 67.1687 92.6784 66.6103 91.592C65.4562 89.3466 65.4975 84.2758 66.2559 81.9074Z"/>
	<path fill="#9EA09F" transform="scale(6.38924 6.38924)" d="M300.371 82.3747Q300.679 82.3139 300.992 82.283C301.968 82.1866 303.785 82.3642 304.556 83.027C304.692 83.1443 304.662 83.3817 304.675 83.5583C303.834 83.823 302.409 82.8526 301.444 82.8529C301.034 82.853 300.741 82.9304 300.448 83.2284C299.979 83.7056 299.739 84.3674 299.749 85.0259C299.774 86.622 303.465 87.1347 304.486 88.1396C305.12 88.7649 305.406 89.7088 305.399 90.5853C305.392 91.4293 304.972 92.1737 304.371 92.7445C303.368 93.6965 302.521 93.8271 301.187 93.8015C300.542 93.7446 299.932 93.5004 299.442 93.0679C298.929 92.6165 298.79 92.0543 298.756 91.3996C299.839 91.8583 300.639 92.7393 301.821 93.0352C302.602 93.2309 303.022 93.0398 303.669 92.6503C304.08 92.066 304.311 91.4851 304.358 90.7651C304.481 88.8819 300.296 87.4996 299.155 86.1437C298.936 85.8829 298.655 85.3233 298.686 84.9736C298.784 83.8545 299.549 83.0655 300.371 82.3747Z"/>
	<path fill="#9EA09F" transform="scale(6.38924 6.38924)" d="M212.404 82.3745C213.969 82.0892 215.081 82.2637 216.399 83.1446C215.951 83.5392 212.841 83.0335 211.782 83.5145C211.671 83.6716 211.431 83.9214 211.426 84.1083C211.352 86.5063 215.434 87.0664 216.769 88.4697C217.223 88.9468 217.446 89.5411 217.422 90.1978C217.388 91.1055 216.911 92.3897 216.231 93.0148C215.287 93.8839 213.921 93.8407 212.725 93.8049C212.358 93.7082 212.016 93.4392 211.724 93.2055C211.175 92.7676 210.804 92.1919 210.727 91.4889C211.724 92.0585 212.99 93.0261 214.14 93.1673C214.514 93.2134 215.068 93.1288 215.368 92.8961C215.935 92.4567 216.287 91.782 216.364 91.066C216.625 88.6391 212.322 87.7437 211.065 86.1614C210.796 85.8218 210.606 85.2759 210.66 84.8462C210.787 83.8399 211.641 82.9724 212.404 82.3745Z"/>
	<path fill="#9EA09F" transform="scale(6.38924 6.38924)" d="M231.353 82.1204C231.696 82.1076 232.048 82.1859 232.386 82.24C232.419 82.3341 232.45 82.4302 232.471 82.5279C232.714 83.6524 232.702 93.5999 232.353 94.1626C231.643 92.1478 225.557 85.5429 223.721 84.5534C223.731 84.5746 223.741 84.5956 223.751 84.617C224.638 86.6159 224.504 90.5169 224.257 92.7288C224.177 93.4524 224.127 93.5416 223.564 93.9876C222.421 92.2945 224.298 84.4192 222.623 81.7564C222.862 81.9124 223.107 82.0809 223.316 82.2763C224.46 83.3424 230.953 90.5889 231.005 91.6105C232.047 89.7746 231.678 84.2826 231.353 82.1204Z"/>
	<path fill="#9EA09F" transform="scale(6.38924 6.38924)" d="M147.635 82.1127C147.933 82.108 148.227 82.1874 148.517 82.2487C148.617 82.4243 148.697 82.616 148.738 82.8142C148.922 83.7008 148.754 92.5681 148.492 92.9348C148.473 92.9616 148.453 92.9871 148.433 93.0132L148.761 93.0955L148.564 93.6784C147.933 93.1854 147.606 92.4315 147.096 91.821C145.374 89.7567 142.603 86.101 140.208 84.9416L140.125 84.9019C140.385 85.4271 140.527 85.8851 140.555 86.4765C140.634 88.2047 141.107 92.6382 140.017 93.8327L139.116 93.6282C139.237 93.3827 139.349 93.1097 139.407 92.8417C139.82 90.9253 139.817 83.291 138.805 81.7846C140.485 82.9601 147.004 90.1445 147.498 91.9018C148.178 90.7525 147.838 83.706 147.635 82.1127Z"/>
	<path fill="#9EA09F" transform="scale(6.38924 6.38924)" d="M180.594 82.1174C181.057 82.1385 181.182 82.1442 181.573 82.3827C182.014 85.1334 181.833 90.7391 181.665 93.6276C179.335 91.2474 176.168 86.3396 173.308 84.9705L173.23 84.934Q173.346 85.1288 173.434 85.3376C173.837 86.2988 173.695 92.757 173.28 93.7254L172.566 93.98C172.56 93.9667 172.555 93.9535 172.55 93.94C172.315 93.2676 172.274 82.941 172.559 82.3196C174.009 83.984 180.241 90.049 180.239 91.7938C180.249 91.7731 180.259 91.7526 180.268 91.7318C180.283 91.6971 180.295 91.6611 180.312 91.6268C181.215 89.7196 181.03 84.2324 180.594 82.1174Z"/>
	<path fill="#1760B5" transform="scale(6.38924 6.38924)" d="M27.1317 26.7375C27.638 26.6691 28.1862 26.701 28.6824 26.8244C29.6302 27.0602 30.6314 27.7597 31.1227 28.6116C31.6008 29.4406 31.6489 30.474 31.4006 31.3833C31.0414 32.6983 29.9496 33.4356 28.8336 34.0759C28.3686 34.1414 27.7941 34.1885 27.3357 34.0923C26.3875 33.8933 25.39 33.2802 24.877 32.4473C24.353 31.5966 24.2968 30.5182 24.5417 29.5669C24.9233 28.0852 25.8965 27.4565 27.1317 26.7375Z"/>
	<path fill="#02A762" transform="scale(6.38924 6.38924)" d="M15.7575 45.0137C16.4602 44.9071 17.1839 44.8479 17.8798 45.0329Q18.2381 45.1282 18.5709 45.2915Q18.9038 45.4547 19.1984 45.6797Q19.4931 45.9046 19.7383 46.1827Q19.9835 46.4607 20.1699 46.7812C20.6492 47.6246 20.744 48.5998 20.483 49.5299C20.1205 50.8217 19.1799 51.6051 18.0508 52.2323C17.5034 52.2514 16.8778 52.2943 16.3384 52.19C15.3972 52.0079 14.3947 51.2876 13.8703 50.4955C13.3618 49.7274 13.211 48.7828 13.4015 47.8858C13.6948 46.504 14.6433 45.7429 15.7575 45.0137Z"/>
	<path fill="#9EA09F" transform="scale(6.38924 6.38924)" d="M89.6841 82.2076C91.8165 82.2204 94.5669 81.8928 96.355 83.23C97.4752 84.0678 98.091 85.3819 98.2756 86.7464C98.5754 88.9616 97.973 90.8222 96.6365 92.5867C94.7142 94.1344 91.8435 93.8012 89.5213 93.787C89.6319 89.9293 89.5794 86.0666 89.6841 82.2076Z"/>
	<path fill="#FEFEFE" transform="scale(6.38924 6.38924)" d="M90.5055 82.7364C92.3242 82.7397 93.8803 82.9167 95.6229 83.4585C96.5473 84.4477 97.1745 85.4706 97.4294 86.817C97.8079 88.816 97.2403 90.4735 96.1367 92.102C94.4295 93.2518 92.4503 93.2467 90.4754 93.3546C90.5467 89.8193 90.4975 86.273 90.5055 82.7364Z"/>
	<path fill="#02A762" transform="scale(6.38924 6.38924)" d="M8.53148 5.14549C8.45818 6.46779 8.21982 7.78455 8.11961 9.10728C7.91384 11.8232 8.18805 14.5158 9.18819 17.0632C12.3589 25.139 24.0523 36.6914 30.0782 43.6808Q28.67 46.0311 27.1252 48.2939C21.7792 43.6796 10.0501 27.9636 7.7821 21.1438C5.86798 15.388 5.80771 10.5752 8.53148 5.14549Z"/>
	<path fill="#1760B5" transform="scale(6.38924 6.38924)" d="M223.151 42.1248C225.588 41.8511 228.198 42.0045 230.655 42.0047L244.065 42.0163Q244.25 42.2695 244.345 42.5684C244.709 43.7539 244.632 45.879 244.037 46.9699L235.812 47.0006C235.989 47.2647 236.132 47.5676 236.192 47.8811C236.551 49.7671 236.532 64.8043 235.832 65.875C235.955 66.0648 236.069 66.2782 236.139 66.4936C236.577 67.8377 236.566 72.673 235.886 73.9626L231.092 73.9837C231.25 73.748 231.378 73.4853 231.444 73.2088C231.88 71.3745 231.721 51.1246 231.492 48.1659C231.458 47.7299 231.334 47.3696 231.097 47.0033L222.914 47.0043C223.645 45.9619 223.316 43.3525 223.151 42.1248Z"/>
	<path fill="#02A762" transform="scale(6.38924 6.38924)" d="M32.3234 45.9827C38.0546 51.6147 46.207 60.5973 46.2997 69.0458C46.3467 73.3383 43.3856 77.5323 40.5052 80.4624C37.9699 83.0415 34.8807 85.4045 31.6899 87.1174C35.5037 83.4019 38.4918 79.8815 38.5656 74.2802C38.6632 66.8763 34.2058 58.1809 29.8788 52.2772C30.1568 50.4223 31.6086 47.788 32.3234 45.9827Z"/>
	<path fill="#02A762" transform="scale(6.38924 6.38924)" d="M57.7509 42.0181L74.262 42.0142L74.2513 46.9877L62.1208 47.0212L62.0695 54.0142L74.2505 54.0224L74.2564 58.9761L71.5625 59.0073L62.0666 59.0231L62.1624 73.9686C60.7005 74.0135 59.2281 73.974 57.7651 73.9697L57.7509 42.0181Z"/>
	<path fill="#1760B5" transform="scale(6.38924 6.38924)" d="M281.263 42.1249C282.87 41.9533 284.473 42.0132 286.085 42.0526C286.317 42.2004 286.534 42.3767 286.69 42.6065C287.748 44.1719 292.259 51.6904 291.986 53.0634C292.245 52.8843 292.504 52.6709 292.703 52.4262C293.579 51.349 298.445 42.9355 298.349 42.0277L303.6 42.024C303.601 42.0609 303.602 42.098 303.602 42.135C303.58 43.0466 295.464 56.4501 294.546 57.2945C295.989 58.3956 303.388 71.5475 304.323 73.8497C303.794 74.129 302.102 73.9828 301.437 74.0046L298.735 73.968C298.448 72.3423 293.073 62.7926 292.028 61.6656C292.06 61.8329 292.068 61.9972 292.032 62.1654C291.701 63.7274 286.099 73.0857 284.883 73.95C283.141 74.093 281.324 73.9913 279.574 73.991Q279.758 73.8613 279.923 73.7081C281.026 72.6758 289.625 58.3868 289.67 57.24C289.754 55.6476 282.333 44.5228 281.263 42.1249Z"/>
	<path fill="#02A762" transform="scale(6.38924 6.38924)" d="M99.4352 42.0352L103.327 41.9893C103.509 42.27 103.652 42.5752 103.715 42.9054C103.931 44.0369 104.009 46.1011 103.34 47.0734C103.917 48.0306 103.809 49.3327 103.816 50.4142C103.83 52.4985 103.746 54.5823 103.758 56.6679C103.785 61.5177 104.267 67.1307 100.553 70.8698C98.1765 73.2625 94.7931 74.0423 91.5167 74.0441C88.3017 74.0459 84.9592 73.2793 82.6233 70.9349C81.2962 69.603 80.4977 67.9665 80.0571 66.1529C78.8703 61.2684 79.5229 47.7666 79.5398 42.0192L83.946 42.0057L83.9009 54.1624C83.8821 57.1205 83.564 60.4798 84.1974 63.3708C84.4934 64.7216 85.1187 66.0497 86.0814 67.0515C87.493 68.5205 89.3964 69.0597 91.3772 69.0805C93.4617 69.1023 95.5372 68.6098 97.0658 67.0981C98.1334 66.0423 98.7703 64.6725 99.0996 63.2239C100.035 59.1067 99.4097 47.0023 99.4352 42.0352Z"/>
	<path fill="#02A762" transform="scale(6.38924 6.38924)" d="M184.43 42.3742C184.639 42.4222 184.852 42.5448 185.048 42.6339C187.911 47.967 190.196 53.7815 192.71 59.2988C194.766 63.8105 197.238 68.3677 198.946 73.01C199.061 73.3233 199.062 73.6222 199.005 73.9498C197.304 74.0309 195.6 74.0107 193.897 74.0053C193.936 73.867 193.965 73.7243 193.955 73.5796C193.891 72.6793 191.258 67.6344 190.533 67.0104L184.937 67.0075L178.574 67.0238Q178.61 67.2534 178.596 67.4854C178.521 68.7642 176.171 73.0932 175.163 73.9953C173.381 74.085 171.552 73.983 169.766 73.968C170.233 73.6256 170.586 73.2971 170.868 72.786C172.654 69.5409 184.02 44.5791 184.43 42.3742Z"/>
	<path fill="#FEFEFE" transform="scale(6.38924 6.38924)" d="M184.358 52.3738C184.603 52.3731 184.825 52.4887 185.049 52.5801C185.834 54.3724 188.82 60.2026 188.812 61.5679C188.811 61.6917 188.809 61.8136 188.795 61.9368C187.599 62.0037 186.386 61.9887 185.187 62.013L180.209 61.9943C180.51 61.7585 180.798 61.4831 181.008 61.1613C182.012 59.6218 184.679 53.8798 184.358 52.3738Z"/>
	<path fill="#1760B5" transform="scale(6.38924 6.38924)" d="M35.0206 34.4684C34.7454 36.1331 32.2369 45.6446 32.3234 45.9827C31.6086 47.788 30.1568 50.4223 29.8788 52.2772C24.917 60.3855 19.5084 70.4169 18.978 80.0883C18.6136 86.7311 21.0836 89.4278 25.2529 94.0845C19.8377 90.9372 11.7056 87.0366 9.68196 80.7057C6.14793 69.6494 22.4857 57.2899 27.1252 48.2939Q28.67 46.0311 30.0782 43.6808C32.0982 40.7917 33.1791 37.4391 35.0206 34.4684Z"/>
	<path fill="#02A762" transform="scale(6.38924 6.38924)" d="M110.314 41.3694C110.561 41.4064 110.818 41.4782 111.018 41.6305C113.459 43.4809 115.776 46.384 117.955 48.5812C122.516 53.18 127.649 57.759 131.73 62.7765C132.043 63.1611 132.253 63.4986 132.313 64.0015Q132.489 63.6936 132.596 63.3554C133.073 61.8191 132.87 43.1065 132.303 42.0158L136.842 42.0307C137.044 42.3416 137.182 42.6817 137.222 43.0522C137.697 47.4308 137.293 52.3103 137.296 56.7523C137.298 61.9736 137.7 67.5714 137.234 72.7421C137.197 73.1454 137.06 73.455 136.805 73.7665C136.717 73.568 114.903 52.156 114.15 51.6704C114.372 52.0198 114.599 52.4003 114.688 52.809C115.161 54.9966 115.182 72.9107 114.519 73.9469C113.07 74.0137 111.602 73.9822 110.151 73.9961C110.168 73.9712 110.186 73.9467 110.203 73.9214C110.697 73.1807 110.83 44.0798 110.314 41.3694Z"/>
	<path fill="#02A762" transform="scale(6.38924 6.38924)" d="M202.332 42.1246C205.759 41.6781 211.627 41.5573 214.889 42.7265C216.582 43.3331 217.851 44.6858 218.604 46.2894C219.709 48.6429 219.822 51.5145 218.94 53.9573C218.233 55.9161 216.608 57.8033 214.516 58.3322C213.923 58.4824 213.366 58.3572 212.793 58.6273C213.438 61.8869 222.278 71.1062 222.521 73.9209C220.752 74.0378 218.97 74.0035 217.197 74.0059C217.091 73.2001 216.486 72.6349 215.915 72.1251C215.922 72.0035 215.926 71.8599 215.889 71.7426C215.42 70.2425 207.715 59.1783 206.475 58.4592C206.485 58.4798 206.495 58.5003 206.505 58.5211C206.624 58.778 206.755 59.0148 206.84 59.2877C207.333 60.8588 207.3 72.7093 206.64 73.9637L202.147 73.9976C202.191 73.9362 202.199 73.927 202.234 73.8684C202.624 73.2185 202.931 44.497 202.332 42.1246Z"/>
	<path fill="#FEFEFE" transform="scale(6.38924 6.38924)" d="M206.851 47.1246C208.286 46.8976 209.972 46.8878 211.389 47.2259C212.709 47.5409 214.437 48.1898 215.158 49.402C215.369 49.7571 215.565 50.2853 215.455 50.6957C215.218 51.577 214.577 52.5231 213.802 52.9921L213.528 53.3162C211.237 54.1491 209.025 54.0363 206.629 54.0192C206.65 53.9882 206.671 53.9572 206.69 53.9252C207.328 52.8705 207.167 48.3754 206.851 47.1246Z"/>
	<path fill="#02A762" transform="scale(6.38924 6.38924)" d="M144.571 42.1243C148.963 41.6171 155.768 41.6677 160.02 42.7959C163.387 43.6892 165.836 45.5141 167.587 48.5525C170.118 52.9433 170.52 58.8478 169.221 63.6876C168.666 65.7538 167.394 68.7587 165.454 69.8747C165.386 70.2401 165.187 70.4278 164.932 70.6823C160.318 75.2764 150.334 74.0295 144.297 73.9889C144.321 73.9542 144.345 73.9195 144.368 73.8835C144.652 73.4279 144.687 72.9728 144.716 72.4486C145.054 66.2786 144.739 59.9279 144.733 53.7402C144.73 50.4695 145.208 45.1325 144.571 42.1243Z"/>
	<path fill="#FEFEFE" transform="scale(6.38924 6.38924)" d="M148.91 47.1242C151.744 46.6867 155.601 46.8175 158.365 47.4944C160.499 48.0171 162.109 49.367 163.228 51.2219C165.087 54.3033 165.304 58.6975 164.439 62.125C164.019 63.7915 163.12 65.6782 161.603 66.5854C161.555 66.7458 161.494 66.8836 161.38 67.009C158.973 69.6475 151.953 69.0354 148.714 69.0259C148.753 68.9689 148.79 68.9118 148.824 68.852C149.379 67.8702 149.439 48.9742 148.91 47.1242Z"/>
	<path fill="#1760B5" transform="scale(6.38924 6.38924)" d="M260.455 41.1249C264.788 40.7377 269.052 41.6615 272.511 44.3889Q273.152 44.8864 273.741 45.4448Q274.33 46.0032 274.861 46.617Q275.391 47.2308 275.859 47.894Q276.327 48.5571 276.727 49.2632Q277.126 49.9693 277.455 50.7114Q277.783 51.4536 278.036 52.2245Q278.29 52.9954 278.466 53.7875Q278.642 54.5796 278.739 55.3853C279.257 59.8046 278.195 64.1866 275.414 67.6962C272.441 71.448 268.521 73.3369 263.83 73.8751C263.802 73.8812 263.774 73.8877 263.745 73.8936C260.529 74.5544 256.277 73.1331 253.607 71.3688Q252.929 70.9261 252.298 70.4182Q251.668 69.9103 251.09 69.3423Q250.513 68.7742 249.996 68.1516Q249.478 67.529 249.025 66.858Q248.571 66.187 248.187 65.4743Q247.802 64.7616 247.491 64.0141Q247.179 63.2667 246.943 62.4921Q246.708 61.7174 246.55 60.9231C245.682 56.6252 246.473 51.9605 248.911 48.292C251.717 44.0724 255.615 42.1011 260.455 41.1249Z"/>
	<path fill="#FEFEFE" transform="scale(6.38924 6.38924)" d="M260.225 46.1248C263.125 45.6597 266.143 46.1798 268.602 47.8166Q269.073 48.1361 269.51 48.4999Q269.947 48.8638 270.347 49.2686Q270.747 49.6733 271.105 50.1152Q271.464 50.557 271.777 51.0317Q272.091 51.5064 272.357 52.0094Q272.623 52.5124 272.838 53.039Q273.054 53.5655 273.217 54.1106Q273.38 54.6556 273.489 55.214C274.086 58.2277 273.489 61.4927 271.766 64.0495C269.995 66.6794 267.38 68.2158 264.302 68.8094C264.216 68.8546 264.129 68.8964 264.038 68.9307C262.553 69.4901 259.86 68.8968 258.462 68.2821Q257.914 68.0448 257.392 67.754Q256.87 67.4632 256.379 67.1218Q255.889 66.7804 255.435 66.3918Q254.981 66.0032 254.568 65.5712Q254.155 65.1393 253.788 64.6683Q253.42 64.1973 253.101 63.692Q252.782 63.1867 252.515 62.6521Q252.248 62.1175 252.036 61.559C250.984 58.8275 251.035 55.5803 252.225 52.9018C253.823 49.3027 256.694 47.4789 260.225 46.1248Z"/>
</svg>
