<?xml version="1.0" encoding="UTF-8" standalone="no"?>
<svg
   width="1070.2401"
   height="959.42712"
   version="1.1"
   id="svg7"
   sodipodi:docname="fundartox-logo-happy - fit.svg"
   inkscape:version="1.3.2 (091e20e, 2023-11-25, custom)"
   xmlns:inkscape="http://www.inkscape.org/namespaces/inkscape"
   xmlns:sodipodi="http://sodipodi.sourceforge.net/DTD/sodipodi-0.dtd"
   xmlns="http://www.w3.org/2000/svg"
   xmlns:svg="http://www.w3.org/2000/svg">
  <sodipodi:namedview
     id="namedview7"
     pagecolor="#ffffff"
     bordercolor="#000000"
     borderopacity="0.25"
     inkscape:showpageshadow="2"
     inkscape:pageopacity="0.0"
     inkscape:pagecheckerboard="0"
     inkscape:deskcolor="#d1d1d1"
     inkscape:zoom="0.28833836"
     inkscape:cx="-634.67102"
     inkscape:cy="1028.3058"
     inkscape:window-width="1920"
     inkscape:window-height="1001"
     inkscape:window-x="-9"
     inkscape:window-y="-9"
     inkscape:window-maximized="1"
     inkscape:current-layer="svg7" />
  <defs
     id="defs2">
    <linearGradient
       id="gradient_0-2"
       gradientUnits="userSpaceOnUse"
       x1="689.4256"
       y1="639.17432"
       x2="683.24225"
       y2="649.13263">
      <stop
         offset="0"
         stop-color="white"
         stop-opacity="0.06666667"
         id="stop1-1" />
      <stop
         offset="1"
         stop-color="white"
         stop-opacity="0.14901961"
         id="stop2-8" />
    </linearGradient>
    <linearGradient
       id="gradient_1-5"
       gradientUnits="userSpaceOnUse"
       x1="1013.6803"
       y1="393.45679"
       x2="233.05159"
       y2="637.01697">
      <stop
         offset="0"
         stop-color="#2161B3"
         id="stop6-1" />
      <stop
         offset="1"
         stop-color="#16A3CC"
         id="stop7-0" />
    </linearGradient>
  </defs>
  <defs
     id="defs7" />
  <g
     id="g2"
     transform="matrix(1.563883,0,0,1.563883,-405.857,-244.49306)">
    <path
       fill="url(#gradient_0)"
       d="m 689.322,638.657 c 1.144,0.16 1.654,0.617 2.536,1.332 0.485,1.427 0.516,2.053 -0.106,3.463 -1.659,3.766 -4.96,5.313 -8.546,6.676 l -1.875,0.226 -1.164,-1.222 1.129,1.158 -0.896,-0.588 c -0.279,-0.75 -0.311,-1.15 -0.156,-1.962 0.716,-3.758 6.095,-7.095 9.078,-9.083 z"
       id="path2"
       transform="scale(0.942841)"
       style="fill:url(#gradient_0-2)" />
    <path
       fill="#45c058"
       d="m 387.941,427.26 q 1.226,-0.1 2.456,-0.139 1.229,-0.039 2.459,-0.016 1.23,0.022 2.457,0.105 1.227,0.083 2.449,0.227 1.222,0.144 2.435,0.349 1.213,0.204 2.414,0.469 1.201,0.264 2.388,0.588 1.187,0.323 2.356,0.705 1.169,0.383 2.318,0.822 1.149,0.44 2.275,0.936 1.125,0.496 2.225,1.048 1.099,0.551 2.17,1.157 1.071,0.605 2.111,1.263 1.039,0.657 2.045,1.366 1.006,0.708 1.975,1.466 0.969,0.757 1.9,1.562 c 10.645,9.129 17.054,21.468 18.019,35.502 1.018,14.803 -3.786,28.718 -13.63,39.818 -9.801,11.049 -21.534,16.267 -36.106,17.199 q -1.189,0.042 -2.379,0.03 -1.19,-0.011 -2.378,-0.076 -1.188,-0.065 -2.372,-0.183 -1.184,-0.118 -2.362,-0.289 -1.178,-0.171 -2.346,-0.394 -1.169,-0.224 -2.327,-0.499 -1.157,-0.276 -2.302,-0.603 -1.144,-0.328 -2.272,-0.706 -1.128,-0.378 -2.238,-0.806 -1.111,-0.428 -2.201,-0.906 -1.09,-0.477 -2.157,-1.003 -1.068,-0.526 -2.11,-1.099 -1.043,-0.574 -2.059,-1.193 -1.017,-0.619 -2.004,-1.283 -0.988,-0.665 -1.944,-1.372 -0.957,-0.708 -1.881,-1.458 -0.998,-0.81 -1.954,-1.669 -0.956,-0.859 -1.868,-1.764 -0.912,-0.906 -1.777,-1.856 -0.865,-0.951 -1.682,-1.943 -0.816,-0.992 -1.582,-2.025 -0.766,-1.032 -1.479,-2.101 -0.713,-1.069 -1.372,-2.173 -0.658,-1.103 -1.261,-2.239 -0.602,-1.135 -1.147,-2.299 -0.545,-1.164 -1.031,-2.354 -0.486,-1.19 -0.912,-2.403 -0.425,-1.213 -0.79,-2.445 -0.364,-1.233 -0.666,-2.482 -0.302,-1.249 -0.541,-2.512 -0.239,-1.263 -0.415,-2.536 -0.176,-1.274 -0.287,-2.554 c -1.268,-14.338 2.678,-28.086 12.108,-39.038 9.901,-11.499 22.246,-17.157 37.272,-18.194 z"
       id="path3"
       transform="scale(0.942841)" />
    <path
       fill="#26b0d0"
       d="m 869.811,317.821 c 16.523,-0.75 30.834,1.471 44.632,11.245 13.113,9.288 22.626,24.412 25.295,40.275 2.859,16.995 -0.644,35.245 -10.888,49.248 -11.342,15.504 -28.153,24.097 -46.836,26.916 -0.331,0.044 -0.661,0.096 -0.992,0.132 -16.264,1.765 -33.369,-3.779 -46.08,-13.903 -13.516,-10.765 -21.791,-26.116 -23.701,-43.289 q -0.174,-1.575 -0.271,-3.156 -0.096,-1.582 -0.113,-3.166 -0.018,-1.585 0.043,-3.168 0.061,-1.584 0.201,-3.162 0.14,-1.578 0.358,-3.148 0.218,-1.569 0.513,-3.126 0.296,-1.557 0.668,-3.097 0.373,-1.54 0.821,-3.059 0.449,-1.52 0.972,-3.016 0.524,-1.495 1.121,-2.963 0.597,-1.468 1.266,-2.904 0.669,-1.436 1.409,-2.837 0.739,-1.401 1.547,-2.764 0.809,-1.363 1.684,-2.684 0.875,-1.321 1.814,-2.597 0.939,-1.275 1.941,-2.503 c 11.166,-13.691 27.115,-21.598 44.596,-23.274 z"
       id="path4"
       transform="scale(0.942841)" />
    <path
       fill="#9bcf3c"
       d="m 737.37678,429.53266 c 6.87343,17.27423 1.45813,1.74167 7.61372,20.91014 7.809,23.852 7.3915,51.7102 2.4735,76.2552 -9.912,49.468 -44.541,92.375 -82.22,124.302 -5.681,4.814 -11.47,10.461 -17.641,14.569 0.029,-0.304 21.568,-25.768 24.89,-30.515 13.514,-19.317 24.755,-39.262 30.898,-62.159 6.178,-23.028 5.318,-45.43 -3.238,-67.797 -14.845,-38.813 -45.063,-64.547 -76.186,-90.404 -11.86067,-9.868 -23.63567,-19.83733 -35.325,-29.908 -21.125,-17.871 -42.423,-37.519 -56.302,-61.802 -13.585,-23.769 -17.743,-47.951 -10.395,-74.519 7.679,-27.764 26.394,-52.493 46.548,-72.506 3.187,-3.165 7.065,-7.958 10.898,-10.144 l -0.943,1.166 0.039,0.089 c -8.345,11.008 -16.507,21.569 -23.153,33.717 -11.113,20.312 -16.902,44.67 -10.087,67.366 12.466,41.518 59.115,64.163 95.547,81.258 10.884,5.107 22.42505,9.66305 34.4843,15.77305 16.2377,6.67797 20.97162,12.00384 30.86171,19.89124 6.64055,5.29587 7.07369,6.51333 10.09924,9.85564 5.60781,7.86318 5.9062,7.91956 11.98887,18.4166 4.28883,6.66318 6.77231,10.45274 9.14866,16.18513 z"
       id="path5"
       sodipodi:nodetypes="ccccccscccccccccccscsccc"
       transform="scale(0.942841)" />
    <path
       fill="#1d9754"
       d="m 277.055,431.144 c 2.33,2.182 4.738,10.016 6.194,13.164 4.69,10.139 9.956,20.53 16.259,29.766 29.38,43.045 71.926,73.997 113.904,103.623 23.321,-35.889 63.009,-64.727 100.958,-83.283 36.334,-17.767 74.706,-27.552 114.92,-30.888 4.776,-0.396 14.13,-2.174 18.651,-0.611 q -5.076,0.97 -10.12,2.095 c -54.593,12.393 -108.598,41.86 -138.994,90.224 -11.125,18.186 -16.703,37.728 -13.435,59.099 6.988,45.706 48.862,78.318 83.793,103.856 -10.372,5.962 -22.444,13.984 -34.07,16.971 C 456.896,700.127 372.371,657.124 319.933,586.924 287.416,543.392 269.243,485.585 277.055,431.144 Z"
       id="path6"
       transform="scale(0.942841)" />
    <path
       fill="url(#gradient_1)"
       d="m 573.413,267.693 c 5.462,2.33533 10.892,4.74267 16.29,7.222 5.398,2.47933 10.76233,5.03 16.093,7.652 5.33,2.622 10.62467,5.314 15.884,8.076 5.25867,2.76267 10.48,5.59433 15.664,8.495 5.184,2.90133 10.32833,5.87067 15.433,8.908 5.10533,3.03733 10.16933,6.142 15.192,9.314 5.02267,3.172 10.00233,6.41 14.939,9.714 4.93667,3.304 9.829,6.673 14.677,10.107 4.84733,3.434 9.64833,6.93167 14.403,10.493 4.75467,3.56133 9.461,7.18533 14.119,10.872 4.65867,3.686 9.26767,7.43333 13.827,11.242 4.55867,3.80867 9.06633,7.67733 13.523,11.606 4.45667,3.928 8.86033,7.91467 13.211,11.96 4.35067,4.04533 8.64667,8.14767 12.888,12.307 4.242,4.15867 8.428,8.37333 12.558,12.644 4.13,4.27 8.20267,8.59433 12.218,12.973 15.382,17.101 34.223,39.731 42.779,61.144 1.463,3.662 2.903,7.417 4.094,11.176 10.146,-6.261 19.592,-13.614 29.013,-20.899 44.194,-34.176 101.278,-89.464 120.442,-142.856 0.39,18.069 1,36.034 -0.754,54.072 -6.674,68.691 -40.754,128.025 -87.754,177.212 -97.439,101.974 -266.608,191.968 -402.827,226.655 -10.91133,2.72467 -21.88733,5.15633 -32.928,7.295 -11.04067,2.13933 -22.13033,3.98267 -33.269,5.53 -11.13933,1.548 -22.31167,2.798 -33.517,3.75 -11.206,0.952 -22.429,1.60467 -33.669,1.958 -24.094,0.53 -71.096,1.101 -89.951,-16.838 -4.285,-4.077 -6.883,-9.369 -6.914,-15.349 -0.061,-12.066 8.639,-23.059 16.808,-31.058 9.292,-9.1 21.933,-18.703 33.687,-24.353 l 0.369,0.482 0.59,-0.601 -0.03,-0.214 c -0.147,0.139 -0.291,0.282 -0.441,0.418 -11.617,10.502 -31.756,22.862 -32.798,40.325 -0.314,5.262 1.748,10.049 5.352,13.821 11.446,11.976 33.529,13.717 49.216,13.867 20.301,0.194 41.069,-3.029 60.906,-7.051 97.451,-19.76 217.444,-79.014 288.365,-149.196 33.513,-33.164 62.383,-78.222 62.629,-126.768 0.127,-25.11 -8.095,-58.346 -22.265,-79.281 -5.00041,-8.56617 -8.72911,-13.83176 -13.48613,-21.61044 -10.22125,-15.97497 -4.49671,-6.56037 -10.26407,-15.7752 -10.64191,-12.43241 -7.51668,-8.87112 -15.24555,-18.19297 -7.583,-9.84171 -3.83596,-4.96462 -7.31996,-9.07762 C 668.27229,338.12977 640.559,313.41 606.527,289.757 595.635,282.187 584.306,275.25 573.413,267.693 Z"
       id="path7"
       sodipodi:nodetypes="csccccsscscccsccccccccccccscscccccccscscscccccccc"
       transform="scale(0.942841)"
       style="fill:url(#gradient_1-5)" />
  </g>
</svg>
